{"title":"HUNTSMAN WINTERS WAR -Extended Cut (2016) HQ1080p Blu-ray -DDR","uid":15446360,"size":13052950216,"categoryP":"video","categoryS":"hd___movies","magnet":"?xt=urn:btih:e3b5fcef4ed5e86fb44119467de3c410a7c28829&amp;dn=HUNTSMAN+WINTERS+WAR+-Extended+Cut+%282016%29+HQ1080p+Blu-ray+-DDR&amp;tr=udp%3A%2F%2Ftracker.leechers-paradise.org%3A6969&amp;tr=udp%3A%2F%2Fzer0day.ch%3A1337&amp;tr=udp%3A%2F%2Fopen.demonii.com%3A1337&amp;tr=udp%3A%2F%2Ftracker.coppersurfer.tk%3A6969&amp;tr=udp%3A%2F%2Fexodus.desync.com%3A6969","seeders":2,"leechers":3,"uploader":"SaM","files":3,"time":1469889882,"description":"\n** Huntsman Winter War**\r\n\r\n** 2016 **\r\n** HQ 1080p / Blu-Ray / x264 / DTS-Hires 7.1 French**\r\n\r\n** Multi Subtitle(s) **\r\n\r\n\r\n\r\n[ SCREENS ]\r\n[ Transparency encode plz dont cuz shit will still remain shit if transparently encoded\r\nand anyone can just push the slider in x264 to veryslow or placebo and get transparency. ]\r\n\r\n\r\nSource Screenshots \r\n \nhttp://extraimago.com/image/w8t9  \nhttp://extraimago.com/image/w8tU  \nhttp://extraimago.com/image/w8tM\r\n\r\nDDR Encode Screenshots\r\n  \nhttp://extraimago.com/image/w8td  \nhttp://extraimago.com/image/w8th  \nhttp://extraimago.com/image/w8tb\r\n\r\n[ Info ]\r\nSource : DDR Blu-ray BD50\r\nFormat : Matroska\r\nFile size : 12.1 GiB\r\nDuration : 2h 0mn\r\nOverall bit rate : 14.4 Mbps\r\nEncoded date : UTC 2016-07-30 00:06:44\r\n\r\n\r\nFormat : AVC\r\nFormat/Info : Advanced Video Codec\r\nFormat profile :   \r\nFormat settings, CABAC : Yes\r\nFormat settings, ReFrames : 5 frames\r\nCodec ID : V_MPEG4/ISO/AVC\r\nDuration : 2h 0mn\r\nBit rate : 12.3 Mbps\r\nWidth : 1 920 pixels\r\nHeight : 800 pixels\r\nDisplay aspect ratio : 2.40:1\r\nFrame rate mode : Constant\r\nFrame rate : 23.976 (24000/1001) fps\r\ncolor space : YUV\r\nChroma subsampling : 4:2:0\r\nBit depth : 8 bits\r\nScan type : Progressive\r\nBits/(Pixel*Frame) : 0.334\r\nStream size : 10.3 GiB (86%\r\nLanguage : English\r\nDefault : Yes\r\nForced : No\r\ncolor range : Limited\r\ncolor primaries : BT.709\r\nTransfer characteristics : BT.709\r\nMatrix coefficients : BT.709\r\n\r\n\r\nAudio\r\nFormat : DTS\r\nFormat/Info : Digital Theater Systems\r\nFormat profile : HRA / Core\r\nMode : 16\r\nFormat settings, Endianness : Big\r\nCodec ID : A_DTS\r\nDuration : 2h 0mn\r\nBit rate mode : Constant\r\nBit rate : 2 046 Kbps / 1 509 Kbps\r\nChannel(s) : 8 channels / 6 channels\r\nChannel positions : Front: L C R, Side: L R, Back: L R, LFE / Front: L C R, Side: L R, LFE\r\nSampling rate : 48.0 KHz\r\nFrame rate : 93.750 fps (512 spf)\r\nBit depth : 24 bits\r\nCompression mode : Lossy\r\nStream size : 1.72 GiB (14%)\r\nLanguage : French\r\nDefault : Yes\r\nForced : No\r\n\r\nText #1\r\nID : 3\r\nFormat : VobSub\r\nMuxing mode : zlib\r\nCodec ID : S_VOBSUB\r\nCodec ID/Info : Picture based subtitle format used on DVDs\r\nDuration : 1h 59mn\r\nBit rate : 2 854 bps\r\nCount of elements : 1081\r\nStream size : 2.44 MiB (0%)\r\nLanguage : French\r\nDefault : Yes\r\nForced : No\r\n\r\nText #2\r\nID : 4\r\nFormat : VobSub\r\nMuxing mode : zlib\r\nCodec ID : S_VOBSUB\r\nCodec ID/Info : Picture based subtitle format used on DVDs\r\nDuration : 1h 49mn\r\nBit rate : 4 249 bps\r\nCount of elements : 1322\r\nStream size : 3.33 MiB (0%)\r\nLanguage : English\r\nDefault : No\r\nForced : No\r\n\r\n[ A DDR Exclusive HQ Encode !!!]","torrent":{"xt":"urn:btih:e3b5fcef4ed5e86fb44119467de3c410a7c28829","amp;dn":"HUNTSMAN+WINTERS+WAR+-Extended+Cut+%282016%29+HQ1080p+Blu-ray+-DDR","amp;tr":["udp%3A%2F%2Ftracker.leechers-paradise.org%3A6969","udp%3A%2F%2Fzer0day.ch%3A1337","udp%3A%2F%2Fopen.demonii.com%3A1337","udp%3A%2F%2Ftracker.coppersurfer.tk%3A6969","udp%3A%2F%2Fexodus.desync.com%3A6969"],"infoHash":"e3b5fcef4ed5e86fb44119467de3c410a7c28829","infoHashBuffer":{"type":"Buffer","data":[227,181,252,239,78,213,232,111,180,65,25,70,125,227,196,16,167,194,136,41]},"announce":[],"urlList":[]}}